<svg width="51" height="52" viewBox="0 0 51 52" fill="none" xmlns="http://www.w3.org/2000/svg">
<path fill-rule="evenodd" clip-rule="evenodd" d="M38.25 26C38.25 26.431 38.0821 26.8443 37.7832 27.1491C37.4843 27.4538 37.0789 27.625 36.6562 27.625L18.1911 27.625L25.0346 34.5995C25.1828 34.7506 25.3003 34.93 25.3805 35.1274C25.4607 35.3248 25.502 35.5364 25.502 35.75C25.502 35.9637 25.4607 36.1753 25.3805 36.3727C25.3003 36.5701 25.1828 36.7495 25.0346 36.9005C24.8864 37.0516 24.7105 37.1715 24.5169 37.2532C24.3233 37.335 24.1158 37.3771 23.9062 37.3771C23.6967 37.3771 23.4892 37.335 23.2956 37.2532C23.102 37.1715 22.9261 37.0516 22.7779 36.9005L13.2154 27.1505C13.067 26.9996 12.9492 26.8203 12.8689 26.6228C12.7885 26.4254 12.7471 26.2138 12.7471 26C12.7471 25.7863 12.7885 25.5747 12.8689 25.3772C12.9492 25.1798 13.067 25.0005 13.2154 24.8495L22.7779 15.0995C22.9261 14.9485 23.102 14.8286 23.2956 14.7468C23.4892 14.6651 23.6967 14.623 23.9062 14.623C24.1158 14.623 24.3233 14.6651 24.5169 14.7468C24.7105 14.8286 24.8864 14.9485 25.0346 15.0995C25.3339 15.4047 25.502 15.8185 25.502 16.25C25.502 16.4637 25.4607 16.6753 25.3805 16.8727C25.3003 17.0701 25.1828 17.2495 25.0346 17.4005L18.1911 24.375L36.6562 24.375C37.0789 24.375 37.4843 24.5462 37.7832 24.851C38.0821 25.1557 38.25 25.5691 38.25 26V26Z" fill="#808080"/>
</svg>
