<svg width="51" height="52" viewBox="0 0 51 52" fill="none" xmlns="http://www.w3.org/2000/svg">
<path fill-rule="evenodd" clip-rule="evenodd" d="M12.75 26C12.75 25.569 12.9179 25.1557 13.2168 24.8509C13.5157 24.5462 13.9211 24.375 14.3437 24.375L32.8089 24.375L25.9654 17.4005C25.8172 17.2494 25.6997 17.07 25.6195 16.8726C25.5393 16.6752 25.498 16.4636 25.498 16.25C25.498 16.0363 25.5393 15.8247 25.6195 15.6273C25.6997 15.4299 25.8172 15.2505 25.9654 15.0995C26.1136 14.9484 26.2895 14.8285 26.4831 14.7468C26.6767 14.665 26.8842 14.6229 27.0937 14.6229C27.3033 14.6229 27.5108 14.665 27.7044 14.7468C27.898 14.8285 28.0739 14.9484 28.2221 15.0995L37.7846 24.8495C37.933 25.0004 38.0508 25.1797 38.1311 25.3772C38.2115 25.5746 38.2528 25.7862 38.2528 26C38.2528 26.2137 38.2115 26.4253 38.1311 26.6228C38.0508 26.8202 37.933 26.9995 37.7846 27.1505L28.2221 36.9005C28.0739 37.0515 27.898 37.1714 27.7044 37.2532C27.5108 37.3349 27.3033 37.377 27.0938 37.377C26.8842 37.377 26.6767 37.3349 26.4831 37.2532C26.2895 37.1714 26.1136 37.0515 25.9654 36.9005C25.6661 36.5953 25.498 36.1815 25.498 35.75C25.498 35.5363 25.5393 35.3247 25.6195 35.1273C25.6997 34.9299 25.8172 34.7505 25.9654 34.5995L32.8089 27.625L14.3437 27.625C13.9211 27.625 13.5157 27.4538 13.2168 27.149C12.9179 26.8443 12.75 26.4309 12.75 26Z" fill="#808080"/>
</svg>
