<svg width="27" height="27" viewBox="0 0 27 27" fill="none" xmlns="http://www.w3.org/2000/svg">
<path d="M26.5477 8.11158C26.533 7.00707 26.3262 5.91354 25.9367 4.87991C25.5988 4.00805 25.0829 3.21624 24.4217 2.55508C23.7605 1.89392 22.9687 1.37794 22.0969 1.04012C21.0765 0.6571 19.9986 0.449993 18.909 0.427621C17.506 0.364912 17.0612 0.347412 13.5 0.347412C9.93875 0.347412 9.48229 0.347412 8.08958 0.427621C7.00044 0.450158 5.923 0.657261 4.90312 1.04012C4.03112 1.37771 3.23919 1.8936 2.578 2.55479C1.91681 3.21598 1.40092 4.00791 1.06333 4.87991C0.679541 5.89948 0.472884 6.97716 0.452287 8.06637C0.389579 9.47075 0.370621 9.91554 0.370621 13.4768C0.370621 17.038 0.370621 17.493 0.452287 18.8872C0.474162 19.978 0.679787 21.0543 1.06333 22.0766C1.40148 22.9483 1.91776 23.7399 2.57917 24.4008C3.24059 25.0617 4.03259 25.5774 4.90458 25.9149C5.92167 26.3133 6.99929 26.5353 8.09104 26.5712C9.49541 26.6339 9.94021 26.6528 13.5015 26.6528C17.0627 26.6528 17.5192 26.6528 18.9119 26.5712C20.0015 26.5497 21.0795 26.3431 22.0998 25.9601C22.9714 25.6219 23.763 25.1058 24.4241 24.4447C25.0853 23.7836 25.6014 22.992 25.9396 22.1203C26.3231 21.0995 26.5287 20.0232 26.5506 18.931C26.6133 17.528 26.6323 17.0832 26.6323 13.5205C26.6294 9.95929 26.6294 9.50721 26.5477 8.11158V8.11158ZM13.4912 20.2114C9.76666 20.2114 6.74937 17.1941 6.74937 13.4695C6.74937 9.74491 9.76666 6.72762 13.4912 6.72762C15.2793 6.72762 16.9941 7.43792 18.2585 8.70227C19.5228 9.96662 20.2331 11.6814 20.2331 13.4695C20.2331 15.2576 19.5228 16.9724 18.2585 18.2367C16.9941 19.5011 15.2793 20.2114 13.4912 20.2114V20.2114ZM20.5015 8.05033C19.6308 8.05033 18.9294 7.34741 18.9294 6.47825C18.9294 6.27189 18.97 6.06756 19.049 5.87692C19.128 5.68627 19.2437 5.51304 19.3896 5.36713C19.5355 5.22122 19.7087 5.10547 19.8994 5.0265C20.09 4.94754 20.2944 4.90689 20.5007 4.90689C20.7071 4.90689 20.9114 4.94754 21.1021 5.0265C21.2927 5.10547 21.4659 5.22122 21.6118 5.36713C21.7578 5.51304 21.8735 5.68627 21.9525 5.87692C22.0314 6.06756 22.0721 6.27189 22.0721 6.47825C22.0721 7.34741 21.3692 8.05033 20.5015 8.05033Z" fill="#FF0C0C" fill-opacity="0.78"/>
<path d="M13.4913 17.8488C15.9099 17.8488 17.8706 15.8881 17.8706 13.4695C17.8706 11.0508 15.9099 9.09009 13.4913 9.09009C11.0726 9.09009 9.11189 11.0508 9.11189 13.4695C9.11189 15.8881 11.0726 17.8488 13.4913 17.8488Z" fill="#FF0C0C" fill-opacity="0.78"/>
</svg>
