<svg width="40" height="26" viewBox="0 0 40 26" fill="none" xmlns="http://www.w3.org/2000/svg">
<path fill-rule="evenodd" clip-rule="evenodd" d="M19.6307 25.3933H22.0559C22.0559 25.3933 22.7835 25.2602 23.1473 24.8607C23.5111 24.4612 23.5111 23.6623 23.5111 23.6623C23.5111 23.6623 23.5111 20.2003 24.9662 19.6676C26.4213 19.135 28.3615 23.1297 30.3017 24.5944C31.7568 25.7928 32.8481 25.5265 32.8481 25.5265L38.1836 25.3933C38.1836 25.3933 40.9726 25.2602 39.6387 22.7302C39.5175 22.5971 38.9112 20.9992 35.6371 17.6703C32.2418 14.2083 32.7269 14.874 36.7285 8.88205C39.1537 5.28686 40.1238 3.15637 39.8812 2.09113C39.6387 1.15904 37.8198 1.42535 37.8198 1.42535H31.7568C31.7568 1.42535 31.2717 1.29219 31.0292 1.55851C30.6654 1.82482 30.5442 2.22428 30.5442 2.22428C30.5442 2.22428 29.5741 5.02055 28.3615 7.41734C25.6938 12.3441 24.6024 12.6104 24.2386 12.3441C23.2685 11.6783 23.5111 9.41468 23.5111 7.94997C23.5111 3.15637 24.2386 1.15904 22.1772 0.626417C21.5709 0.493261 21.0859 0.360107 19.3882 0.360107C17.2055 0.360107 15.3866 0.360107 14.4165 0.892729C13.689 1.29219 13.2039 2.09113 13.5677 2.09113C13.9315 2.09113 14.9016 2.35744 15.3866 3.02322C15.8717 4.22161 15.8717 6.21895 15.8717 6.21895C15.8717 6.21895 16.2354 11.9446 15.0228 12.6104C14.174 13.143 13.0827 12.0778 10.6575 7.5505C9.44485 5.28686 8.47476 2.62375 8.47476 2.62375C8.47476 2.62375 8.3535 2.09113 7.98972 1.82482C7.62594 1.55851 7.01964 1.42535 7.01964 1.42535H1.32039C1.32039 1.42535 0.471569 1.42535 0.107787 1.82482C-0.134734 2.22428 0.107787 2.89006 0.107787 2.89006C0.107787 2.89006 4.59443 14.3414 9.68737 20.2003C14.4165 25.7928 19.6307 25.3933 19.6307 25.3933Z" fill="#FF0C0C" fill-opacity="0.78"/>
</svg>
